<svg width="117" height="24" viewBox="0 0 117 24" fill="none" xmlns="http://www.w3.org/2000/svg">
<g clip-path="url(#clip0_39_177)">
<g clip-path="url(#clip1_39_177)">
<path d="M2.928 16.576H6.832V18H1.104V6.704H2.928V16.576ZM10.0843 8.176V11.6H14.2443V13.008H10.0843V16.512H14.7243V18H8.26025V6.704H14.7243V8.176H10.0843ZM23.7586 6.704V8.176H20.6066V18H18.7666V8.176H15.6306V6.704H23.7586ZM26.3036 5.136C26.453 5.63733 26.5276 6.17067 26.5276 6.736C26.5276 7.376 26.373 7.86667 26.0636 8.208C25.765 8.54933 25.3223 8.72 24.7356 8.72V7.952C25.0023 7.952 25.1996 7.87733 25.3276 7.728C25.4556 7.568 25.5196 7.33333 25.5196 7.024V6.688H24.6556V5.136H26.3036ZM35.6999 14.992C35.6999 15.5467 35.5665 16.064 35.2999 16.544C35.0332 17.0133 34.6279 17.392 34.0839 17.68C33.5399 17.968 32.8732 18.112 32.0839 18.112C31.3159 18.112 30.6279 17.9787 30.0199 17.712C29.4119 17.4347 28.9265 17.0507 28.5639 16.56C28.2012 16.0693 27.9932 15.504 27.9399 14.864H29.8919C29.9452 15.3547 30.1532 15.776 30.5159 16.128C30.8892 16.48 31.3852 16.656 32.0039 16.656C32.5585 16.656 32.9852 16.5067 33.2839 16.208C33.5932 15.9093 33.7479 15.5253 33.7479 15.056C33.7479 14.6507 33.6359 14.32 33.4119 14.064C33.1879 13.7973 32.9105 13.5893 32.5799 13.44C32.2492 13.2907 31.7959 13.12 31.2199 12.928C30.5159 12.704 29.9399 12.48 29.4919 12.256C29.0545 12.032 28.6812 11.7067 28.3719 11.28C28.0625 10.8533 27.9079 10.2933 27.9079 9.6C27.9079 8.992 28.0572 8.45867 28.3559 8C28.6545 7.54133 29.0812 7.18933 29.6359 6.944C30.1905 6.688 30.8305 6.56 31.5559 6.56C32.7079 6.56 33.6199 6.83733 34.2919 7.392C34.9745 7.94667 35.3639 8.672 35.4599 9.568H33.4919C33.4172 9.14133 33.2145 8.77867 32.8839 8.48C32.5639 8.17067 32.1212 8.016 31.5559 8.016C31.0439 8.016 30.6332 8.14933 30.3239 8.416C30.0145 8.672 29.8599 9.04533 29.8599 9.536C29.8599 9.92 29.9665 10.24 30.1799 10.496C30.3932 10.7413 30.6599 10.9387 30.9799 11.088C31.3105 11.2267 31.7585 11.392 32.3239 11.584C33.0385 11.808 33.6199 12.0373 34.0679 12.272C34.5265 12.496 34.9105 12.8267 35.2199 13.264C35.5399 13.7013 35.6999 14.2773 35.6999 14.992ZM46.3159 6.592C47.7025 6.592 48.8545 6.944 49.7719 7.648C50.6892 8.352 51.3079 9.30667 51.6279 10.512H49.6919C49.4252 9.82933 48.9985 9.29067 48.4119 8.896C47.8359 8.49067 47.1265 8.288 46.2839 8.288C45.6119 8.288 45.0092 8.45333 44.4759 8.784C43.9532 9.11467 43.5372 9.58933 43.2279 10.208C42.9292 10.816 42.7799 11.5307 42.7799 12.352C42.7799 13.1627 42.9292 13.8773 43.2279 14.496C43.5372 15.104 43.9532 15.5733 44.4759 15.904C45.0092 16.2347 45.6119 16.4 46.2839 16.4C47.1265 16.4 47.8359 16.2027 48.4119 15.808C48.9985 15.4027 49.4252 14.864 49.6919 14.192H51.6279C51.3079 15.3973 50.6892 16.352 49.7719 17.056C48.8545 17.7493 47.7025 18.096 46.3159 18.096C45.2492 18.096 44.3052 17.856 43.4839 17.376C42.6625 16.8853 42.0279 16.208 41.5799 15.344C41.1319 14.4693 40.9079 13.472 40.9079 12.352C40.9079 11.232 41.1319 10.24 41.5799 9.376C42.0279 8.50133 42.6625 7.81867 43.4839 7.328C44.3052 6.83733 45.2492 6.592 46.3159 6.592ZM58.6798 6.56C59.7251 6.56 60.6691 6.80533 61.5118 7.296C62.3651 7.78667 63.0318 8.47467 63.5118 9.36C64.0024 10.2347 64.2478 11.2267 64.2478 12.336C64.2478 13.4453 64.0024 14.4427 63.5118 15.328C63.0318 16.2027 62.3651 16.8907 61.5118 17.392C60.6691 17.8827 59.7251 18.128 58.6798 18.128C57.6238 18.128 56.6691 17.8827 55.8158 17.392C54.9731 16.8907 54.3064 16.2027 53.8158 15.328C53.3251 14.4427 53.0798 13.4453 53.0798 12.336C53.0798 11.2267 53.3251 10.2347 53.8158 9.36C54.3064 8.47467 54.9731 7.78667 55.8158 7.296C56.6691 6.80533 57.6238 6.56 58.6798 6.56ZM58.6798 8.256C57.9544 8.256 57.3091 8.42133 56.7438 8.752C56.1784 9.08267 55.7358 9.55733 55.4158 10.176C55.1064 10.7947 54.9518 11.5147 54.9518 12.336C54.9518 13.1573 55.1064 13.8773 55.4158 14.496C55.7358 15.1147 56.1784 15.5893 56.7438 15.92C57.3091 16.2507 57.9544 16.416 58.6798 16.416C59.3944 16.416 60.0291 16.2507 60.5838 15.92C61.1491 15.5893 61.5864 15.1147 61.8958 14.496C62.2158 13.8773 62.3758 13.1573 62.3758 12.336C62.3758 11.5147 62.2158 10.7947 61.8958 10.176C61.5864 9.55733 61.1491 9.08267 60.5838 8.752C60.0291 8.42133 59.3944 8.256 58.6798 8.256ZM75.2244 18H73.4004L67.9124 9.664V18H66.0884V6.72H67.9124L73.4004 15.088V6.72H75.2244V18ZM86.5681 18H84.7441L79.2561 9.664V18H77.4321V6.72H79.2561L84.7441 15.088V6.72H86.5681V18ZM90.5999 8.176V11.6H94.7599V13.008H90.5999V16.512H95.2399V18H88.7759V6.704H95.2399V8.176H90.5999ZM102.05 6.592C103.437 6.592 104.589 6.944 105.506 7.648C106.424 8.352 107.042 9.30667 107.362 10.512H105.426C105.16 9.82933 104.733 9.29067 104.146 8.896C103.57 8.49067 102.861 8.288 102.018 8.288C101.346 8.288 100.744 8.45333 100.21 8.784C99.6876 9.11467 99.2716 9.58933 98.9623 10.208C98.6636 10.816 98.5143 11.5307 98.5143 12.352C98.5143 13.1627 98.6636 13.8773 98.9623 14.496C99.2716 15.104 99.6876 15.5733 100.21 15.904C100.744 16.2347 101.346 16.4 102.018 16.4C102.861 16.4 103.57 16.2027 104.146 15.808C104.733 15.4027 105.16 14.864 105.426 14.192H107.362C107.042 15.3973 106.424 16.352 105.506 17.056C104.589 17.7493 103.437 18.096 102.05 18.096C100.984 18.096 100.04 17.856 99.2183 17.376C98.3969 16.8853 97.7623 16.208 97.3143 15.344C96.8663 14.4693 96.6423 13.472 96.6423 12.352C96.6423 11.232 96.8663 10.24 97.3143 9.376C97.7623 8.50133 98.3969 7.81867 99.2183 7.328C100.04 6.83733 100.984 6.592 102.05 6.592ZM116.446 6.704V8.176H113.294V18H111.454V8.176H108.318V6.704H116.446Z" fill="#7F8CFF"/>
</g>
</g>
<defs>
<clipPath id="clip0_39_177">
<rect width="117" height="24" fill="white"/>
</clipPath>
<clipPath id="clip1_39_177">
<rect width="117" height="24" fill="white"/>
</clipPath>
</defs>
</svg>
